<?xml version="1.0" standalone="no"?><svg xmlns="http://www.w3.org/2000/svg" viewBox="0 0 1440 320" ><path fill="#333333" fill-opacity="0.9" d="M0,256L30,261.3C60,267,120,277,180,277.3C240,277,300,267,360,250.7C420,235,480,213,540,197.3C600,181,660,171,720,176C780,181,840,203,900,202.7C960,203,1020,181,1080,186.7C1140,192,1200,224,1260,245.3C1320,267,1380,277,1410,282.7L1440,288L1440,0L1410,0C1380,0,1320,0,1260,0C1200,0,1140,0,1080,0C1020,0,960,0,900,0C840,0,780,0,720,0C660,0,600,0,540,0C480,0,420,0,360,0C300,0,240,0,180,0C120,0,60,0,30,0L0,0Z"></path></svg>