<?xml version="1.0" standalone="no"?>
<svg xmlns:xlink="http://www.w3.org/1999/xlink" id="wave" style="transform:rotate(180deg); transition: 0.3s" viewBox="0 0 1440 100" version="1.1" xmlns="http://www.w3.org/2000/svg"><defs><linearGradient id="sw-gradient-0" x1="0" x2="0" y1="1" y2="0"><stop stop-color="rgba(255, 249, 234, 1)" offset="0%"/><stop stop-color="rgba(255, 249, 234, 1)" offset="100%"/></linearGradient></defs><path style="transform:translate(0, 0px); opacity:1" fill="url(#sw-gradient-0)" d="M0,80L34.3,78.3C68.6,77,137,73,206,63.3C274.3,53,343,37,411,26.7C480,17,549,13,617,20C685.7,27,754,43,823,55C891.4,67,960,73,1029,73.3C1097.1,73,1166,67,1234,55C1302.9,43,1371,27,1440,26.7C1508.6,27,1577,43,1646,51.7C1714.3,60,1783,60,1851,56.7C1920,53,1989,47,2057,51.7C2125.7,57,2194,73,2263,68.3C2331.4,63,2400,37,2469,33.3C2537.1,30,2606,50,2674,63.3C2742.9,77,2811,83,2880,75C2948.6,67,3017,43,3086,43.3C3154.3,43,3223,67,3291,71.7C3360,77,3429,63,3497,60C3565.7,57,3634,63,3703,65C3771.4,67,3840,63,3909,66.7C3977.1,70,4046,80,4114,83.3C4182.9,87,4251,83,4320,70C4388.6,57,4457,33,4526,30C4594.3,27,4663,43,4731,45C4800,47,4869,33,4903,26.7L4937.1,20L4937.1,100L4902.9,100C4868.6,100,4800,100,4731,100C4662.9,100,4594,100,4526,100C4457.1,100,4389,100,4320,100C4251.4,100,4183,100,4114,100C4045.7,100,3977,100,3909,100C3840,100,3771,100,3703,100C3634.3,100,3566,100,3497,100C3428.6,100,3360,100,3291,100C3222.9,100,3154,100,3086,100C3017.1,100,2949,100,2880,100C2811.4,100,2743,100,2674,100C2605.7,100,2537,100,2469,100C2400,100,2331,100,2263,100C2194.3,100,2126,100,2057,100C1988.6,100,1920,100,1851,100C1782.9,100,1714,100,1646,100C1577.1,100,1509,100,1440,100C1371.4,100,1303,100,1234,100C1165.7,100,1097,100,1029,100C960,100,891,100,823,100C754.3,100,686,100,617,100C548.6,100,480,100,411,100C342.9,100,274,100,206,100C137.1,100,69,100,34,100L0,100Z"/></svg>